HIERARCHY
ROOT root
{
	OFFSET	0	13.1	24.9
	CHANNELS 6  Xposition Yposition Zposition Xrotation Yrotation Zrotation
	JOINT spine_1
	{
		OFFSET	0	9.99999	0
		CHANNELS 3  Xrotation Yrotation Zrotation
		JOINT spine_2
		{
			OFFSET	0	112	-10
			CHANNELS 3  Xrotation Yrotation Zrotation
			JOINT spine_3
			{
				OFFSET	0	206.5	19.3
				CHANNELS 3  Xrotation Yrotation Zrotation
				JOINT spine_4
				{
					OFFSET	0	110.4	14.6
					CHANNELS 3  Xrotation Yrotation Zrotation
					JOINT neck_1
					{
						OFFSET	0	71.8	-50.3
						CHANNELS 3  Xrotation Yrotation Zrotation
						JOINT neck_2
						{
							OFFSET	0	86.2	-25.8
							CHANNELS 3  Xrotation Yrotation Zrotation
							JOINT head_ee
							{
								OFFSET	0	179.8	-8.7
								CHANNELS 3  Xrotation Yrotation Zrotation
								End Site
								{
									OFFSET	1	0	0
								}
							}
						}
					}
					JOINT left_clavicle
					{
						OFFSET	-43.2	22.4	-70.8
						CHANNELS 3  Xrotation Yrotation Zrotation
						JOINT left_shoulder
						{
							OFFSET	-93.9	-5.79999	48.7
							CHANNELS 3  Xrotation Yrotation Zrotation
							JOINT left_elbow
							{
								OFFSET	-291.4	-30.8	15.2
								CHANNELS 3  Xrotation Yrotation Zrotation
								JOINT left_lowarm_twist
								{
									OFFSET	-110.7	-3.89999	13.6
									CHANNELS 3  Xrotation Yrotation Zrotation
									JOINT left_hand
									{
										OFFSET	-110.7	-3.89999	13.6
										CHANNELS 3  Xrotation Yrotation Zrotation
										JOINT left_ee
										{
											OFFSET	-80.8	-5.10001	12.1
											CHANNELS 3  Xrotation Yrotation Zrotation
											End Site
											{
												OFFSET	1	0	0
											}
										}
									}
								}
							}
						}
					}
					JOINT right_clavicle
					{
						OFFSET	43.2	22.4	-70.8
						CHANNELS 3  Xrotation Yrotation Zrotation
						JOINT right_shoulder
						{
							OFFSET	93.9	-5.79999	48.7
							CHANNELS 3  Xrotation Yrotation Zrotation
							JOINT right_elbow
							{
								OFFSET	291.4	-30.8	15.2
								CHANNELS 3  Xrotation Yrotation Zrotation
								JOINT right_lowarm_twist
								{
									OFFSET	110.7	-3.89999	13.6
									CHANNELS 3  Xrotation Yrotation Zrotation
									JOINT right_hand
									{
										OFFSET	110.7	-3.89999	13.6
										CHANNELS 3  Xrotation Yrotation Zrotation
										JOINT right_ee
										{
											OFFSET	80.8	-5.10001	12.1
											CHANNELS 3  Xrotation Yrotation Zrotation
											End Site
											{
												OFFSET	1	0	0
											}
										}
									}
								}
							}
						}
					}
				}
			}
		}
	}
	JOINT left_hip
	{
		OFFSET	-82.8	-127.5	0.300001
		CHANNELS 3  Xrotation Yrotation Zrotation
		JOINT left_knee
		{
			OFFSET	-28.2	-396.7	2.2
			CHANNELS 3  Xrotation Yrotation Zrotation
			JOINT left_ankle
			{
				OFFSET	-11.7	-411.3	35.4
				CHANNELS 3  Xrotation Yrotation Zrotation
				JOINT left_toes
				{
					OFFSET	0	-60	-88.6
					CHANNELS 3  Xrotation Yrotation Zrotation
					JOINT left_foot_ee
					{
						OFFSET	-22.5	-16.5	-42.2
						CHANNELS 3  Xrotation Yrotation Zrotation
						End Site
						{
							OFFSET	1	0	0
						}
					}
				}
			}
		}
	}
	JOINT right_hip
	{
		OFFSET	82.8	-127.5	0.300001
		CHANNELS 3  Xrotation Yrotation Zrotation
		JOINT right_knee
		{
			OFFSET	28.2	-396.7	2.2
			CHANNELS 3  Xrotation Yrotation Zrotation
			JOINT right_ankle
			{
				OFFSET	11.7	-411.3	35.4
				CHANNELS 3  Xrotation Yrotation Zrotation
				JOINT right_toes
				{
					OFFSET	0	-60	-88.6
					CHANNELS 3  Xrotation Yrotation Zrotation
					JOINT right_foot_ee
					{
						OFFSET	22.5	-16.5	-42.2
						CHANNELS 3  Xrotation Yrotation Zrotation
						End Site
						{
							OFFSET	1	0	0
						}
					}
				}
			}
		}
	}
}
MOTION
Frames: 6
Frame Time: 0.02
3177.02 653.055 -1669.29 8.25941991338 64.3090317428 -5.58488921052 -3.19842 1.04413 2.90702 -3.19413 0.857119 2.9675 -3.14188 0.0455413 3.08836 -3.1548 0.53249 3.04249 -17.7734 3.48626 -9.37653 -17.696 11.8337 -7.46242 -0.0 0.0 -0.0 -0.186872 8.5389 0.684495 -19.5372 -25.2944 75.1805 0.207789 -5.87704 0.0106662 -68.8416 -6.39828 5.29036 -2.36783 18.2798 -6.89661 -0.0 0.0 -0.0 10.4061 29.0035 -19.4239 3.4199 16.5464 -54.1397 2.93019 55.425 -1.53944 39.0556 0.301053 4.88471 4.97287 -10.937 -39.6489 0.0 0.0 0.0 40.9602 16.6135 -17.5407 -23.6675 0.234095 3.59868 -0.675075 12.1122 0.0991515 -40.1549 0.0 0.0 -0.0 0.0 -0.0 -13.3076 32.548 -5.14354 -30.0444 -0.0423641 -4.55804 40.3019 -2.16613 4.88945 -0.49973 0.0 0.0 0.0 0.0 0.0 
3134.31162124 655.048 -1666.907361 6.03530345012 62.8904005357 -3.75437648694 -2.78459 1.12547 2.83275 -2.78062 0.943011 2.89855 -2.72585 0.168808 3.0433 -2.73819 0.647107 2.97855 -17.6416 2.62507 -6.67819 -17.6074 8.71428 -5.26252 -0.0 0.0 -0.0 -0.0659576 8.15639 0.851317 -19.9656 -25.6845 74.2839 0.211863 -5.99143 0.0110873 -69.3518 -6.46332 5.29597 -1.7351 15.2495 -4.50201 -0.0 0.0 -0.0 11.1435 29.0567 -21.0701 3.62882 14.9064 -52.9082 2.44335 50.4288 -1.15064 39.1636 0.306474 4.89742 4.56405 -10.3116 -36.0518 0.0 0.0 0.0 41.5379 16.1292 -17.3816 -28.8021 0.0880824 4.37287 -1.86662 9.87434 0.27441 -39.4591 0.0 0.0 -0.0 0.0 -0.0 -15.0146 34.9319 -4.16773 -29.2994 -0.0702615 -4.44712 39.3426 -3.01623 4.80344 1.01515 -0.0 -0.0 0.0 0.0 0.0 
3104.11621302 663.797 -1665.88757486 3.27969749607 61.5687355193 -0.666513156369 -2.61045 1.04949 2.76153 -2.60663 0.871714 2.82265 -2.55728 0.127937 2.95132 -2.56895 0.59224 2.89417 -13.8779 3.15869 -5.93819 -13.8462 9.66259 -4.66453 -0.0 0.0 -0.0 -0.172887 8.17023 0.664234 -19.6708 -26.0339 74.7588 0.259742 -7.33205 0.0166422 -70.0873 -6.55716 5.30303 -1.50572 13.396 -3.93863 -0.0 0.0 -0.0 11.4272 29.1937 -21.6907 1.98391 14.4377 -53.5606 2.36237 49.4783 -1.08865 40.1538 0.357288 5.01342 4.47713 -7.62138 -34.4621 0.0 0.0 0.0 41.9987 16.0525 -17.8559 -32.6184 -0.0650993 4.93839 0.827998 8.07574 -0.12093 -38.4509 0.0 0.0 -0.0 0.0 -0.0 -15.2377 35.9297 -4.11077 -29.0814 -0.078153 -4.41459 35.3909 -5.51752 4.43622 0.256814 -0.0 -0.0 0.0 0.0 0.0 
3104.127129 663.797 -1665.66122471 3.29862084274 61.7463463679 -0.688013860179 -2.61045 1.04949 2.76153 -2.60663 0.871714 2.82265 -2.55728 0.127937 2.95132 -2.56895 0.59224 2.89417 -13.8779 3.15869 -5.93819 -13.8462 9.66259 -4.66453 -0.0 0.0 -0.0 -0.172887 8.17023 0.664234 -19.6708 -26.0339 74.7588 0.259742 -7.33205 0.0166422 -70.0873 -6.55716 5.30303 -1.50572 13.396 -3.93863 -0.0 0.0 -0.0 11.4272 29.1937 -21.6907 1.98391 14.4377 -53.5606 2.36237 49.4783 -1.08865 40.1538 0.357288 5.01342 4.47713 -7.62138 -34.4621 0.0 0.0 0.0 41.9987 16.0525 -17.8559 -32.6184 -0.0650993 4.93839 0.827998 8.07574 -0.12093 -38.4509 0.0 0.0 -0.0 0.0 -0.0 -15.2377 35.9297 -4.11077 -29.0814 -0.078153 -4.41459 35.3909 -5.51752 4.43622 0.256814 -0.0 -0.0 0.0 0.0 0.0 
3045.92760402 663.002 -1676.87363533 3.19189283083 61.1999754664 -0.354052363003 -2.25043 0.540404 2.77921 -2.24621 0.362532 2.80794 -2.22335 -0.345134 2.81013 -2.23435 0.102821 2.82936 -13.961 3.86979 -2.90059 -13.9998 9.15331 -1.5391 -0.0 0.0 -0.0 -0.669604 8.32302 -0.192685 -20.4252 -26.2267 74.358 0.301017 -8.48134 0.0223202 -70.3894 -6.59573 5.30558 0.0998865 -9.01513 -3.15568 -0.0 0.0 -0.0 10.7197 27.4311 -20.3174 0.607407 16.06 -56.9501 2.04184 45.3213 -0.852546 41.781 0.445126 5.2021 4.48406 -4.92284 -33.5479 0.0 0.0 0.0 40.6654 16.2069 -17.6207 -39.8635 -0.458104 5.97917 14.4831 9.95624 -2.02645 -39.7362 0.0 0.0 -0.0 0.0 -0.0 -15.2346 36.3848 -6.03051 -29.0899 -0.0778491 -4.41585 32.6237 -9.28509 4.16945 1.75513 -0.0 -0.0 0.0 0.0 0.0 
3019.54896053 663.829 -1678.88860557 4.97625116827 61.4006650226 -1.74413830154 -2.2522 0.422243 2.52147 -2.2487 0.260993 2.54321 -2.23304 -0.378322 2.52843 -2.24196 0.0256082 2.55643 -15.1206 3.42746 -1.87218 -15.1624 7.66432 -0.623751 -0.0 0.0 -0.0 -0.508554 7.97782 0.0467006 -20.3014 -27.0309 73.3045 0.318822 -8.97507 0.0250222 -71.7496 -6.76947 5.31453 0.87236 -12.995 0.349388 -0.0 0.0 -0.0 10.7623 27.0118 -20.4618 -0.541078 16.2641 -56.7973 1.78879 41.5407 -0.678485 43.0387 0.516682 5.34621 4.14526 -4.64927 -30.7803 0.0 0.0 0.0 38.2048 15.8477 -16.494 -41.4254 -0.559934 6.19666 19.7247 8.35454 -2.69711 -39.7823 0.0 0.0 -0.0 0.0 -0.0 -15.1252 36.72 -6.72132 -31.4156 0.0127516 -4.76124 31.9792 -9.85262 4.10554 1.32804 -0.0 -0.0 0.0 0.0 0.0 
